<?xml version="1.0" encoding="UTF-8"?>
<svg id="Layer_1" xmlns="http://www.w3.org/2000/svg" version="1.1" viewBox="0 0 283.46 283.46">
  <!-- Generator: Adobe Illustrator 29.6.1, SVG Export Plug-In . SVG Version: 2.1.1 Build 9)  -->
  <defs>
    <style>
      .st0 {
        fill: #ee252f;
      }

      .st1 {
        fill: #fff;
      }
    </style>
  </defs>
  <rect x="1032.28" y="0" width="283.46" height="283.46"/>
  <g>
    <path class="st1" d="M1247.44,63.72v133.12c0,5.3-4.3,9.6-9.6,9.6h-6.54c5.3,0,9.6-4.3,9.6-9.6V63.72c0-5.3-4.3-9.6-9.6-9.6h6.54c5.3,0,9.6,4.3,9.6,9.6ZM1100.58,226.6c0,2.84,1.72,3.61,3.83,1.7l24.08-21.86h82.3c5.3,0,9.6-4.3,9.6-9.6V63.72c0-5.3-4.3-9.6-9.6-9.6h-100.62c-5.3,0-9.6,4.3-9.6,9.6v162.89h.01Z"/>
    <path class="st0" d="M1118.85,100.45c2.12,2.24,4.86,3.35,8.21,3.35s6.37-1.21,8.63-3.63c2.25-2.42,3.38-5.75,3.38-9.99s-1.14-7.58-3.4-10.02c-2.27-2.44-5.14-3.66-8.6-3.66-3.02,0-5.53.91-7.54,2.73v-13.96h-8.82v37.97h7.26l.89-2.79h-.01ZM1120.36,85.59c1.08-1.15,2.44-1.73,4.08-1.73s2.99.58,4.05,1.73,1.59,2.68,1.59,4.58-.53,3.37-1.59,4.52c-1.06,1.15-2.41,1.73-4.05,1.73s-3-.57-4.08-1.73-1.62-2.66-1.62-4.52.54-3.42,1.62-4.58ZM1156.63,104.07c4.32,0,7.86-1.28,10.61-3.85s4.13-5.88,4.13-9.94-1.38-7.33-4.13-9.91-6.29-3.88-10.61-3.88-7.84,1.29-10.58,3.88-4.1,5.89-4.1,9.91,1.37,7.37,4.1,9.94,6.26,3.85,10.58,3.85ZM1152.56,85.65c1.08-1.19,2.44-1.79,4.07-1.79s3,.6,4.08,1.79,1.62,2.74,1.62,4.64-.53,3.44-1.59,4.64c-1.06,1.19-2.43,1.79-4.11,1.79s-3.04-.6-4.1-1.79c-1.06-1.19-1.59-2.74-1.59-4.64s.54-3.44,1.62-4.64ZM1191.31,92.4h-15.02v-6.7h15.02v6.7ZM1138.73,135.07c0-4.02-1.38-7.33-4.13-9.91s-6.29-3.88-10.61-3.88-7.84,1.29-10.58,3.88-4.1,5.89-4.1,9.91,1.37,7.37,4.1,9.94,6.26,3.85,10.58,3.85,7.86-1.28,10.61-3.85,4.13-5.88,4.13-9.94ZM1128.1,139.71c-1.06,1.19-2.43,1.79-4.11,1.79s-3.04-.6-4.1-1.79c-1.06-1.19-1.59-2.74-1.59-4.64s.54-3.44,1.62-4.64c1.08-1.19,2.44-1.79,4.07-1.79s3,.6,4.08,1.79c1.08,1.19,1.62,2.74,1.62,4.64s-.53,3.44-1.59,4.64ZM1156.05,148.87c4.32,0,7.86-1.28,10.61-3.85s4.13-5.88,4.13-9.94-1.38-7.33-4.13-9.91-6.29-3.88-10.61-3.88-7.84,1.29-10.58,3.88-4.1,5.89-4.1,9.91,1.37,7.37,4.1,9.94,6.26,3.85,10.58,3.85ZM1151.97,130.44c1.08-1.19,2.44-1.79,4.07-1.79s3,.6,4.08,1.79c1.08,1.19,1.62,2.74,1.62,4.64s-.53,3.44-1.59,4.64c-1.06,1.19-2.43,1.79-4.11,1.79s-3.04-.6-4.1-1.79c-1.06-1.19-1.59-2.74-1.59-4.64s.54-3.44,1.62-4.64ZM1183.71,148.03h-8.82v-37.97h8.82v20.99l7.37-9.1h10.95l-10.72,11.89,12.23,14.18h-11.06l-8.77-11.22v11.22h0ZM1110.92,156.47h8.82v37.97h-8.82v-37.97ZM1138.72,167.7c-4.32,0-7.84,1.29-10.58,3.88-2.74,2.59-4.1,5.89-4.1,9.91s1.37,7.37,4.1,9.94,6.26,3.85,10.58,3.85,7.86-1.28,10.61-3.85,4.13-5.88,4.13-9.94-1.38-7.33-4.13-9.91c-2.75-2.59-6.29-3.88-10.61-3.88ZM1142.83,186.12c-1.06,1.19-2.43,1.79-4.11,1.79s-3.04-.6-4.1-1.79c-1.06-1.19-1.59-2.74-1.59-4.64s.54-3.44,1.62-4.64c1.08-1.19,2.44-1.79,4.07-1.79s3,.6,4.08,1.79c1.08,1.19,1.62,2.74,1.62,4.64s-.53,3.44-1.59,4.64ZM1183.51,168.36l-11.45,26.08h-7.26l-11.45-26.08h9.33l5.75,15.75,5.75-15.75h9.33ZM1211.68,181.82c0-4.39-1.29-7.84-3.88-10.36-2.59-2.51-5.93-3.77-10.02-3.77s-7.6,1.29-10.3,3.88c-2.7,2.59-4.05,5.89-4.05,9.91s1.4,7.42,4.19,9.97c2.79,2.55,6.55,3.83,11.28,3.83,4.39,0,8-1.23,10.84-3.68l-5.81-4.75c-1.41,1.42-3.16,2.12-5.25,2.12-3.31,0-5.32-1.71-6.03-5.13h19.04v-2.01h0ZM1192.69,178.64c.67-3.13,2.36-4.69,5.08-4.69,1.49,0,2.67.42,3.54,1.26s1.43,1.99,1.65,3.44h-10.27Z"/>
  </g>
  <rect x="687.81" y="0" width="283.46" height="283.46"/>
  <g>
    <path class="st0" d="M902.97,63.72v133.12c0,5.3-4.3,9.6-9.6,9.6h-6.54c5.3,0,9.6-4.3,9.6-9.6V63.72c0-5.3-4.3-9.6-9.6-9.6h6.54c5.3,0,9.6,4.3,9.6,9.6ZM756.11,226.6c0,2.84,1.72,3.61,3.83,1.7l24.08-21.86h82.3c5.3,0,9.6-4.3,9.6-9.6V63.72c0-5.3-4.3-9.6-9.6-9.6h-100.62c-5.3,0-9.6,4.3-9.6,9.6v162.89h0Z"/>
    <path class="st1" d="M774.38,100.45c2.12,2.24,4.86,3.35,8.21,3.35s6.37-1.21,8.63-3.63c2.25-2.42,3.38-5.75,3.38-9.99s-1.14-7.58-3.4-10.02c-2.27-2.44-5.14-3.66-8.6-3.66-3.02,0-5.53.91-7.54,2.73v-13.96h-8.82v37.97h7.26l.89-2.79h-.01ZM775.89,85.59c1.08-1.15,2.44-1.73,4.08-1.73s2.99.58,4.05,1.73,1.59,2.68,1.59,4.58-.53,3.37-1.59,4.52c-1.06,1.15-2.41,1.73-4.05,1.73s-3-.57-4.08-1.73-1.62-2.66-1.62-4.52.54-3.42,1.62-4.58ZM812.16,104.07c4.32,0,7.86-1.28,10.61-3.85s4.13-5.88,4.13-9.94-1.38-7.33-4.13-9.91-6.29-3.88-10.61-3.88-7.84,1.29-10.58,3.88-4.1,5.89-4.1,9.91,1.37,7.37,4.1,9.94,6.26,3.85,10.58,3.85ZM808.09,85.65c1.08-1.19,2.44-1.79,4.07-1.79s3,.6,4.08,1.79,1.62,2.74,1.62,4.64-.53,3.44-1.59,4.64c-1.06,1.19-2.43,1.79-4.11,1.79s-3.04-.6-4.1-1.79-1.59-2.74-1.59-4.64.54-3.44,1.62-4.64ZM846.84,92.4h-15.02v-6.7h15.02v6.7ZM794.26,135.07c0-4.02-1.38-7.33-4.13-9.91s-6.29-3.88-10.61-3.88-7.84,1.29-10.58,3.88-4.1,5.89-4.1,9.91,1.37,7.37,4.1,9.94,6.26,3.85,10.58,3.85,7.86-1.28,10.61-3.85,4.13-5.88,4.13-9.94ZM783.63,139.71c-1.06,1.19-2.43,1.79-4.11,1.79s-3.04-.6-4.1-1.79c-1.06-1.19-1.59-2.74-1.59-4.64s.54-3.44,1.62-4.64c1.08-1.19,2.44-1.79,4.07-1.79s3,.6,4.08,1.79c1.08,1.19,1.62,2.74,1.62,4.64s-.53,3.44-1.59,4.64ZM811.58,148.87c4.32,0,7.86-1.28,10.61-3.85s4.13-5.88,4.13-9.94-1.38-7.33-4.13-9.91-6.29-3.88-10.61-3.88-7.84,1.29-10.58,3.88-4.1,5.89-4.1,9.91,1.37,7.37,4.1,9.94,6.26,3.85,10.58,3.85ZM807.5,130.44c1.08-1.19,2.44-1.79,4.07-1.79s3,.6,4.08,1.79c1.08,1.19,1.62,2.74,1.62,4.64s-.53,3.44-1.59,4.64c-1.06,1.19-2.43,1.79-4.11,1.79s-3.04-.6-4.1-1.79c-1.06-1.19-1.59-2.74-1.59-4.64s.54-3.44,1.62-4.64ZM839.24,148.03h-8.82v-37.97h8.82v20.99l7.37-9.1h10.95l-10.72,11.89,12.23,14.18h-11.06l-8.77-11.22v11.22h0ZM766.45,156.47h8.82v37.97h-8.82v-37.97ZM794.25,167.7c-4.32,0-7.84,1.29-10.58,3.88-2.74,2.59-4.1,5.89-4.1,9.91s1.37,7.37,4.1,9.94,6.26,3.85,10.58,3.85,7.86-1.28,10.61-3.85,4.13-5.88,4.13-9.94-1.38-7.33-4.13-9.91c-2.75-2.59-6.29-3.88-10.61-3.88ZM798.36,186.12c-1.06,1.19-2.43,1.79-4.11,1.79s-3.04-.6-4.1-1.79c-1.06-1.19-1.59-2.74-1.59-4.64s.54-3.44,1.62-4.64c1.08-1.19,2.44-1.79,4.07-1.79s3,.6,4.08,1.79c1.08,1.19,1.62,2.74,1.62,4.64s-.53,3.44-1.59,4.64ZM839.04,168.36l-11.45,26.08h-7.26l-11.45-26.08h9.33l5.75,15.75,5.75-15.75h9.33ZM867.21,181.82c0-4.39-1.29-7.84-3.88-10.36-2.59-2.51-5.93-3.77-10.02-3.77s-7.6,1.29-10.3,3.88c-2.7,2.59-4.05,5.89-4.05,9.91s1.4,7.42,4.19,9.97,6.55,3.83,11.28,3.83c4.39,0,8-1.23,10.84-3.68l-5.81-4.75c-1.41,1.42-3.16,2.12-5.25,2.12-3.31,0-5.32-1.71-6.03-5.13h19.04v-2.01h-.01ZM848.22,178.64c.67-3.13,2.36-4.69,5.08-4.69,1.49,0,2.67.42,3.54,1.26s1.43,1.99,1.65,3.44h-10.27Z"/>
  </g>
  <rect class="st0" x="338.82" y="0" width="283.46" height="283.46"/>
  <g>
    <path class="st1" d="M553.99,63.72v133.12c0,5.3-4.3,9.6-9.6,9.6h-6.54c5.3,0,9.6-4.3,9.6-9.6V63.72c0-5.3-4.3-9.6-9.6-9.6h6.54c5.3,0,9.6,4.3,9.6,9.6ZM407.12,226.6c0,2.84,1.72,3.61,3.83,1.7l24.08-21.86h82.3c5.3,0,9.6-4.3,9.6-9.6V63.72c0-5.3-4.3-9.6-9.6-9.6h-100.62c-5.3,0-9.6,4.3-9.6,9.6v162.89h.01Z"/>
    <path class="st0" d="M425.4,100.45c2.12,2.24,4.86,3.35,8.21,3.35s6.37-1.21,8.63-3.63c2.25-2.42,3.38-5.75,3.38-9.99s-1.14-7.58-3.4-10.02c-2.27-2.44-5.14-3.66-8.6-3.66-3.02,0-5.53.91-7.54,2.73v-13.96h-8.82v37.97h7.26l.89-2.79h-.01ZM426.9,85.59c1.08-1.15,2.44-1.73,4.08-1.73s2.99.58,4.05,1.73,1.59,2.68,1.59,4.58-.53,3.37-1.59,4.52c-1.06,1.15-2.41,1.73-4.05,1.73s-3-.57-4.08-1.73-1.62-2.66-1.62-4.52.54-3.42,1.62-4.58ZM463.18,104.07c4.32,0,7.86-1.28,10.61-3.85s4.13-5.88,4.13-9.94-1.38-7.33-4.13-9.91-6.29-3.88-10.61-3.88-7.84,1.29-10.58,3.88-4.1,5.89-4.1,9.91,1.37,7.37,4.1,9.94,6.26,3.85,10.58,3.85ZM459.1,85.65c1.08-1.19,2.44-1.79,4.07-1.79s3,.6,4.08,1.79,1.62,2.74,1.62,4.64-.53,3.44-1.59,4.64c-1.06,1.19-2.43,1.79-4.11,1.79s-3.04-.6-4.1-1.79-1.59-2.74-1.59-4.64.54-3.44,1.62-4.64ZM497.86,92.4h-15.02v-6.7h15.02v6.7ZM445.28,135.07c0-4.02-1.38-7.33-4.13-9.91s-6.29-3.88-10.61-3.88-7.84,1.29-10.58,3.88-4.1,5.89-4.1,9.91,1.37,7.37,4.1,9.94,6.26,3.85,10.58,3.85,7.86-1.28,10.61-3.85,4.13-5.88,4.13-9.94ZM434.64,139.71c-1.06,1.19-2.43,1.79-4.11,1.79s-3.04-.6-4.1-1.79c-1.06-1.19-1.59-2.74-1.59-4.64s.54-3.44,1.62-4.64c1.08-1.19,2.44-1.79,4.07-1.79s3,.6,4.08,1.79c1.08,1.19,1.62,2.74,1.62,4.64s-.53,3.44-1.59,4.64ZM462.59,148.87c4.32,0,7.86-1.28,10.61-3.85s4.13-5.88,4.13-9.94-1.38-7.33-4.13-9.91-6.29-3.88-10.61-3.88-7.84,1.29-10.58,3.88-4.1,5.89-4.1,9.91,1.37,7.37,4.1,9.94,6.26,3.85,10.58,3.85ZM458.52,130.44c1.08-1.19,2.44-1.79,4.07-1.79s3,.6,4.08,1.79c1.08,1.19,1.62,2.74,1.62,4.64s-.53,3.44-1.59,4.64c-1.06,1.19-2.43,1.79-4.11,1.79s-3.04-.6-4.1-1.79c-1.06-1.19-1.59-2.74-1.59-4.64s.54-3.44,1.62-4.64ZM490.26,148.03h-8.82v-37.97h8.82v20.99l7.37-9.1h10.95l-10.72,11.89,12.23,14.18h-11.06l-8.77-11.22v11.22h0ZM417.47,156.47h8.82v37.97h-8.82v-37.97ZM445.26,167.7c-4.32,0-7.84,1.29-10.58,3.88-2.74,2.59-4.1,5.89-4.1,9.91s1.37,7.37,4.1,9.94,6.26,3.85,10.58,3.85,7.86-1.28,10.61-3.85,4.13-5.88,4.13-9.94-1.38-7.33-4.13-9.91c-2.75-2.59-6.29-3.88-10.61-3.88ZM449.37,186.12c-1.06,1.19-2.43,1.79-4.11,1.79s-3.04-.6-4.1-1.79c-1.06-1.19-1.59-2.74-1.59-4.64s.54-3.44,1.62-4.64c1.08-1.19,2.44-1.79,4.07-1.79s3,.6,4.08,1.79c1.08,1.19,1.62,2.74,1.62,4.64s-.53,3.44-1.59,4.64ZM490.05,168.36l-11.45,26.08h-7.26l-11.45-26.08h9.33l5.75,15.75,5.75-15.75h9.33ZM518.22,181.82c0-4.39-1.29-7.84-3.88-10.36-2.59-2.51-5.93-3.77-10.02-3.77s-7.6,1.29-10.3,3.88c-2.7,2.59-4.05,5.89-4.05,9.91s1.4,7.42,4.19,9.97,6.55,3.83,11.28,3.83c4.39,0,8-1.23,10.84-3.68l-5.81-4.75c-1.41,1.42-3.16,2.12-5.25,2.12-3.31,0-5.32-1.71-6.03-5.13h19.04v-2.01h-.01ZM499.24,178.64c.67-3.13,2.36-4.69,5.08-4.69,1.49,0,2.67.42,3.54,1.26s1.43,1.99,1.65,3.44h-10.27Z"/>
  </g>
  <g>
    <path class="st0" d="M215.16,63.72v133.12c0,5.3-4.3,9.6-9.6,9.6h-6.54c5.3,0,9.6-4.3,9.6-9.6V63.72c0-5.3-4.3-9.6-9.6-9.6h6.54c5.3,0,9.6,4.3,9.6,9.6ZM68.3,226.6c0,2.84,1.72,3.61,3.83,1.7l24.08-21.86h82.3c5.3,0,9.6-4.3,9.6-9.6V63.72c0-5.3-4.3-9.6-9.6-9.6h-100.62c-5.3,0-9.6,4.3-9.6,9.6v162.89h0Z"/>
    <path class="st1" d="M86.57,100.45c2.12,2.24,4.86,3.35,8.21,3.35s6.37-1.21,8.63-3.63c2.25-2.42,3.38-5.75,3.38-9.99s-1.14-7.58-3.4-10.02c-2.27-2.44-5.14-3.66-8.6-3.66-3.02,0-5.53.91-7.54,2.73v-13.96h-8.82v37.97h7.26l.89-2.79h0ZM88.08,85.59c1.08-1.15,2.44-1.73,4.08-1.73s2.99.58,4.05,1.73c1.06,1.15,1.59,2.68,1.59,4.58s-.53,3.37-1.59,4.52c-1.06,1.15-2.41,1.73-4.05,1.73s-3-.57-4.08-1.73-1.62-2.66-1.62-4.52.54-3.42,1.62-4.58ZM124.35,104.07c4.32,0,7.86-1.28,10.61-3.85s4.13-5.88,4.13-9.94-1.38-7.33-4.13-9.91-6.29-3.88-10.61-3.88-7.84,1.29-10.58,3.88-4.1,5.89-4.1,9.91,1.37,7.37,4.1,9.94,6.26,3.85,10.58,3.85ZM120.28,85.65c1.08-1.19,2.44-1.79,4.07-1.79s3,.6,4.08,1.79c1.08,1.19,1.62,2.74,1.62,4.64s-.53,3.44-1.59,4.64c-1.06,1.19-2.43,1.79-4.11,1.79s-3.04-.6-4.1-1.79-1.59-2.74-1.59-4.64.54-3.44,1.62-4.64ZM159.03,92.4h-15.02v-6.7h15.02v6.7ZM106.45,135.07c0-4.02-1.38-7.33-4.13-9.91s-6.29-3.88-10.61-3.88-7.84,1.29-10.58,3.88-4.1,5.89-4.1,9.91,1.37,7.37,4.1,9.94,6.26,3.85,10.58,3.85,7.86-1.28,10.61-3.85,4.13-5.88,4.13-9.94ZM95.82,139.71c-1.06,1.19-2.43,1.79-4.11,1.79s-3.04-.6-4.1-1.79c-1.06-1.19-1.59-2.74-1.59-4.64s.54-3.44,1.62-4.64c1.08-1.19,2.44-1.79,4.07-1.79s3,.6,4.08,1.79c1.08,1.19,1.62,2.74,1.62,4.64s-.53,3.44-1.59,4.64h0ZM123.77,148.87c4.32,0,7.86-1.28,10.61-3.85s4.13-5.88,4.13-9.94-1.38-7.33-4.13-9.91-6.29-3.88-10.61-3.88-7.84,1.29-10.58,3.88-4.1,5.89-4.1,9.91,1.37,7.37,4.1,9.94,6.26,3.85,10.58,3.85ZM119.69,130.44c1.08-1.19,2.44-1.79,4.07-1.79s3,.6,4.08,1.79c1.08,1.19,1.62,2.74,1.62,4.64s-.53,3.44-1.59,4.64c-1.06,1.19-2.43,1.79-4.11,1.79s-3.04-.6-4.1-1.79c-1.06-1.19-1.59-2.74-1.59-4.64s.54-3.44,1.62-4.64h0ZM151.43,148.03h-8.82v-37.97h8.82v20.99l7.37-9.1h10.95l-10.72,11.89,12.23,14.18h-11.06l-8.77-11.22v11.22h0ZM78.64,156.47h8.82v37.97h-8.82v-37.97ZM106.44,167.7c-4.32,0-7.84,1.29-10.58,3.88s-4.1,5.89-4.1,9.91,1.37,7.37,4.1,9.94,6.26,3.85,10.58,3.85,7.86-1.28,10.61-3.85,4.13-5.88,4.13-9.94-1.38-7.33-4.13-9.91-6.29-3.88-10.61-3.88ZM110.55,186.12c-1.06,1.19-2.43,1.79-4.11,1.79s-3.04-.6-4.1-1.79c-1.06-1.19-1.59-2.74-1.59-4.64s.54-3.44,1.62-4.64c1.08-1.19,2.44-1.79,4.07-1.79s3,.6,4.08,1.79c1.08,1.19,1.62,2.74,1.62,4.64s-.53,3.44-1.59,4.64h0ZM151.23,168.36l-11.45,26.08h-7.26l-11.45-26.08h9.33l5.75,15.75,5.75-15.75h9.33,0ZM179.4,181.82c0-4.39-1.29-7.84-3.88-10.36-2.59-2.51-5.93-3.77-10.02-3.77s-7.6,1.29-10.3,3.88-4.05,5.89-4.05,9.91,1.4,7.42,4.19,9.97c2.79,2.55,6.55,3.83,11.28,3.83,4.39,0,8-1.23,10.84-3.68l-5.81-4.75c-1.41,1.42-3.16,2.12-5.25,2.12-3.31,0-5.32-1.71-6.03-5.13h19.04v-2.01h0ZM160.41,178.64c.67-3.13,2.36-4.69,5.08-4.69,1.49,0,2.67.42,3.54,1.26s1.43,1.99,1.65,3.44h-10.27,0Z"/>
  </g>
</svg>